<svg version="1.1" id="Layer_1" xmlns="http://www.w3.org/2000/svg" xmlns:xlink="http://www.w3.org/1999/xlink" x="0px" y="0px"
	 width="100%" viewBox="0 0 3500 3516" enable-background="new 0 0 3500 3516" xml:space="preserve">
<path fill="#19807700" opacity="1.000000" stroke-width="10" stroke="white"  
	d="
M1642.000000,2.000000 
	C1720.708496,2.000000 1799.416870,2.000000 1878.215088,2.692233 
	C1879.664795,4.377297 1880.949829,6.093736 1882.397461,6.243958 
	C1890.962891,7.132811 1899.587402,7.456283 1908.150879,8.359835 
	C1917.572510,9.353914 1926.925903,11.008251 1936.351685,11.945866 
	C1951.341187,13.436961 1966.366821,14.566379 1981.374512,15.879304 
	C1981.995239,15.933610 1982.572388,16.395586 1983.197998,16.501509 
	C1990.178711,17.683817 1997.142212,19.001156 2004.155151,19.951103 
	C2013.845093,21.263685 2023.610352,22.049887 2033.273193,23.522589 
	C2040.575684,24.635527 2047.726685,26.719893 2055.017822,27.935221 
	C2073.474854,31.011683 2092.087891,33.263813 2110.425293,36.915802 
	C2134.020020,41.614769 2157.466064,47.109604 2180.863525,52.730721 
	C2198.811523,57.042664 2216.712891,61.648994 2234.409912,66.885071 
	C2272.226562,78.074120 2310.247803,88.597702 2346.900391,103.491524 
	C2367.431396,111.834320 2388.641846,118.490341 2409.381348,126.341621 
	C2417.308350,129.342468 2424.488525,134.464081 2432.518799,137.010956 
	C2445.138672,141.013306 2457.664551,144.759964 2468.261475,153.174683 
	C2469.580078,154.221588 2472.036133,153.836136 2474.111328,154.802200 
	C2478.648682,160.184494 2484.287842,161.632629 2491.070801,161.823822 
	C2493.099609,162.798584 2494.509033,163.664276 2496.044434,165.193573 
	C2504.612549,172.131195 2513.911133,176.380127 2525.109375,177.882034 
	C2533.257324,181.874664 2540.704834,185.776215 2548.172363,190.391571 
	C2549.247070,192.248993 2550.093750,193.789505 2551.391602,194.471054 
	C2559.163330,198.552429 2566.971924,202.579163 2574.922852,206.293472 
	C2577.133789,207.326401 2579.868652,207.237335 2582.210205,207.805435 
	C2582.057129,207.947876 2582.309570,207.614471 2582.281494,208.328735 
	C2589.410400,213.621262 2596.474365,218.353226 2603.740479,222.751205 
	C2635.862549,242.194290 2668.426758,260.939240 2700.081299,281.113068 
	C2725.555420,297.348175 2750.302734,314.792511 2774.729248,332.583282 
	C2796.984131,348.792175 2818.619141,365.884399 2840.069824,383.155426 
	C2858.159180,397.720154 2875.802490,412.860352 2893.260254,428.182587 
	C2913.229004,445.708832 2933.370605,463.108093 2952.356689,481.667480 
	C2977.587402,506.330933 3001.838867,532.000061 3026.375977,557.367615 
	C3035.619629,566.924255 3044.542480,576.794617 3053.505615,586.618530 
	C3058.652588,592.259705 3063.743896,597.966248 3068.588623,603.866150 
	C3082.693604,621.042297 3097.020996,638.053406 3110.599365,655.640137 
	C3131.081055,682.168030 3151.655518,708.667297 3170.975830,736.036377 
	C3189.937012,762.897522 3207.496826,790.754395 3225.463379,818.309937 
	C3251.649170,858.471436 3274.593994,900.541016 3296.254150,943.222717 
	C3313.702393,977.604858 3329.155029,1013.010986 3345.111572,1048.136108 
	C3363.548096,1088.720459 3378.924805,1130.545166 3393.130371,1172.741943 
	C3411.029297,1225.909668 3426.873047,1279.714844 3438.568848,1334.654907 
	C3444.292725,1361.542969 3451.021484,1388.255493 3455.646240,1415.328979 
	C3461.382568,1448.906494 3465.595459,1482.751099 3470.109131,1516.527954 
	C3473.045166,1538.498291 3475.753174,1560.515747 3477.808105,1582.582275 
	C3479.713623,1603.043457 3480.955322,1623.582886 3481.871094,1644.115479 
	C3482.922607,1667.690186 3483.723145,1691.293579 3483.821289,1714.887939 
	C3483.895996,1732.810547 3482.545898,1750.734741 3482.122314,1768.665161 
	C3481.791992,1782.657227 3482.361328,1796.680908 3481.713867,1810.652710 
	C3480.932373,1827.523804 3479.284180,1844.354492 3478.019043,1861.203369 
	C3477.274170,1871.121826 3476.868652,1881.078491 3475.742920,1890.953247 
	C3473.382568,1911.660034 3470.779297,1932.341675 3468.028320,1953.000610 
	C3465.407959,1972.681641 3463.076416,1992.430298 3459.535400,2011.952759 
	C3454.278809,2040.934570 3448.119629,2069.753906 3442.252441,2098.623535 
	C3432.131836,2148.422607 3418.416504,2197.285645 3403.044434,2245.669678 
	C3389.254639,2289.073242 3374.254883,2332.079834 3356.266602,2373.960205 
	C3343.150635,2404.496826 3330.483643,2435.269043 3316.090576,2465.202637 
	C3300.665527,2497.283447 3284.159912,2528.898682 3266.823975,2559.991211 
	C3249.030273,2591.905029 3230.416748,2623.422363 3210.768066,2654.224121 
	C3192.018555,2683.616943 3172.080811,2712.307373 3151.539307,2740.485596 
	C3132.589600,2766.480713 3112.339111,2791.540527 3092.279297,2816.708008 
	C3081.321777,2830.455566 3069.770508,2843.746826 3058.135010,2856.933350 
	C3040.995117,2876.357422 3023.875488,2895.819336 3006.118164,2914.672852 
	C2990.584229,2931.165527 2974.324707,2946.986328 2958.121338,2962.833740 
	C2943.850586,2976.790527 2929.537354,2990.735596 2914.651855,3004.023193 
	C2898.072510,3018.822754 2880.898438,3032.961426 2863.846924,3047.225098 
	C2847.810547,3060.640137 2832.006592,3074.381836 2815.378906,3087.031738 
	C2774.141602,3118.404053 2732.554443,3149.361572 2688.323730,3176.455322 
	C2652.620605,3198.325684 2616.837891,3220.135742 2580.281738,3240.522705 
	C2552.118164,3256.228760 2522.810059,3269.910645 2493.812988,3284.087646 
	C2446.885010,3307.030762 2398.638184,3326.832275 2349.493408,3344.556885 
	C2303.526367,3361.135742 2257.231201,3376.684326 2209.922852,3388.892822 
	C2174.317871,3398.081299 2138.416748,3406.164307 2102.514648,3414.142090 
	C2082.174805,3418.662354 2061.592529,3422.120850 2041.070679,3425.783936 
	C2028.042114,3428.109863 2014.955078,3430.167725 2001.837280,3431.918213 
	C1988.712524,3433.670410 1975.523071,3434.952393 1962.350342,3436.328857 
	C1943.589600,3438.288818 1924.830078,3440.277100 1906.046753,3441.998291 
	C1895.151733,3442.996582 1884.208740,3443.463623 1873.291382,3444.227295 
	C1855.773193,3445.451660 1838.270142,3446.937500 1820.737671,3447.890625 
	C1811.431030,3448.396484 1802.071777,3448.205322 1792.743652,3447.997314 
	C1756.822021,3447.196045 1720.905640,3449.139648 1684.944458,3446.433350 
	C1662.813965,3444.768066 1640.559082,3444.552734 1618.423950,3442.174072 
	C1600.968140,3440.297852 1583.337158,3439.940918 1565.929810,3437.750488 
	C1539.352417,3434.405518 1512.912964,3429.977051 1486.393066,3426.161621 
	C1447.684204,3420.593018 1409.280884,3413.302734 1371.378784,3403.791504 
	C1331.498901,3393.783936 1291.786499,3383.034424 1252.279663,3371.642822 
	C1227.719116,3364.560791 1203.510620,3356.143311 1179.446533,3347.485107 
	C1155.068970,3338.713867 1130.931396,3329.232910 1106.934570,3319.459229 
	C1085.700928,3310.811035 1064.673706,3301.622559 1043.797241,3292.140625 
	C1022.290771,3282.372559 1000.987244,3272.143555 979.768127,3261.762695 
	C967.218445,3255.623047 954.975830,3248.851318 942.653931,3242.253906 
	C937.959351,3239.739990 933.293396,3239.549805 928.202209,3240.930176 
	C897.466553,3249.262695 866.716614,3257.544678 835.926880,3265.675049 
	C782.692566,3279.731934 729.430359,3293.683594 676.171143,3307.645996 
	C620.023621,3322.365234 563.861694,3337.028809 507.713928,3351.747070 
	C454.453094,3365.708740 401.206268,3379.724121 347.946075,3393.688477 
	C304.633606,3405.044434 261.318512,3416.390381 217.990326,3427.686035 
	C157.331848,3443.499756 96.662407,3459.271484 35.988914,3475.027344 
	C32.361355,3475.969238 28.657515,3476.617432 24.109711,3477.590820 
	C25.525476,3472.259521 26.520403,3468.424805 27.562643,3464.602539 
	C36.377987,3432.275146 45.196568,3399.948975 54.024742,3367.625244 
	C62.414959,3336.904541 70.799232,3306.182373 79.219780,3275.469971 
	C89.483154,3238.036377 99.802917,3200.617920 110.057899,3163.181885 
	C117.156738,3137.267090 124.159386,3111.326172 131.254776,3085.410400 
	C141.504547,3047.973389 151.816925,3010.553467 162.069077,2973.116943 
	C169.166428,2947.200928 176.183716,2921.262939 183.279404,2895.346436 
	C193.529419,2857.908936 203.809143,2820.479492 214.092987,2783.051025 
	C222.883102,2751.059082 231.743744,2719.086182 240.486984,2687.081543 
	C249.140793,2655.404297 257.521942,2623.650635 266.456604,2592.053467 
	C267.804413,2587.286865 267.066010,2583.763428 264.882538,2579.852051 
	C257.750854,2567.076416 250.738907,2554.234375 243.644653,2541.437744 
	C220.544968,2499.770264 199.746384,2456.934814 180.944733,2413.208984 
	C166.779770,2380.266602 154.232193,2346.614990 141.467072,2313.087891 
	C122.655144,2263.678711 107.148392,2213.167480 94.185501,2161.953125 
	C84.678818,2124.394043 76.507820,2086.476562 68.602791,2048.539551 
	C63.610146,2024.578979 59.834267,2000.343506 56.206432,1976.127319 
	C53.510788,1958.133301 51.949471,1939.970215 49.845768,1921.886719 
	C47.934032,1905.453369 45.669544,1889.054565 44.114319,1872.588257 
	C42.431957,1854.775879 41.121140,1836.917969 40.144810,1819.052734 
	C39.129787,1800.479370 38.078472,1781.870850 38.164177,1763.282837 
	C38.322144,1729.022827 39.181400,1694.763794 39.983288,1660.509888 
	C40.434223,1641.247314 40.864380,1621.961792 42.204460,1602.749268 
	C43.493282,1584.271606 45.989880,1565.879395 47.867058,1547.440796 
	C49.376579,1532.613403 50.286983,1517.708740 52.302673,1502.953125 
	C55.077808,1482.637939 58.287323,1462.365845 61.953472,1442.192139 
	C67.694374,1410.602051 73.514389,1379.013062 80.132629,1347.598877 
	C89.781509,1301.799194 102.136818,1256.656128 116.355873,1212.084595 
	C132.014847,1162.999390 148.683884,1114.234375 169.375107,1066.969727 
	C181.505219,1039.261353 192.851944,1011.156616 206.243942,984.067078 
	C224.081192,947.985779 242.754883,912.260071 262.575378,877.233887 
	C281.549530,843.703308 301.389282,810.553955 322.785950,778.531555 
	C346.935242,742.389465 373.070770,707.563721 398.706757,672.431335 
	C408.477722,659.040833 418.998932,646.169739 429.646637,633.454224 
	C442.859680,617.675110 456.373840,602.137634 470.092468,586.794983 
	C489.135193,565.497803 508.115448,544.122253 527.835999,523.461365 
	C541.835327,508.794495 556.895874,495.127380 571.696045,481.241364 
	C588.904846,465.095520 606.027649,448.833923 623.770142,433.287140 
	C644.480835,415.139435 665.304810,397.047943 687.010071,380.125671 
	C718.671814,355.441040 750.617004,331.044647 783.437561,307.940643 
	C825.844482,278.088348 869.837219,250.600937 915.132751,225.258163 
	C917.095520,224.159988 918.209229,221.544266 919.823853,219.792450 
	C919.929260,219.949448 919.657349,219.686554 920.424744,219.821228 
	C927.691650,218.060455 934.850281,217.231201 938.129639,209.195877 
	C939.451965,208.405167 940.487427,208.081116 942.303345,207.861267 
	C950.948547,204.378174 958.846863,200.860687 966.625488,197.095795 
	C967.402954,196.719498 967.452942,194.840195 968.239624,193.126129 
	C972.295837,190.996887 975.953003,189.399994 980.366089,187.932770 
	C985.044556,187.438690 989.269714,187.254044 989.989014,181.979828 
	C990.002441,181.997833 989.965881,181.977661 990.461914,182.005371 
	C990.957886,182.033081 991.950806,182.056641 992.724854,182.073914 
	C1008.395996,175.243774 1023.310547,168.433548 1038.148926,161.461121 
	C1039.088745,161.019485 1039.435547,159.315765 1040.485840,158.043716 
	C1040.913574,157.888229 1041.823608,157.895081 1042.549316,158.051910 
	C1046.177734,156.845276 1049.080200,155.481812 1052.661499,153.916061 
	C1061.202271,149.804718 1068.939087,145.614059 1076.952759,142.045456 
	C1093.500610,134.676315 1110.003662,127.141724 1126.882568,120.596870 
	C1145.838013,113.246773 1165.176758,106.881561 1184.368774,100.145004 
	C1229.766235,84.210129 1275.514038,69.287262 1322.327026,58.146832 
	C1366.554688,47.621647 1410.931152,37.520802 1455.589355,29.067722 
	C1492.911865,22.003199 1530.680054,17.163801 1568.362549,12.184438 
	C1587.082520,9.710786 1606.054688,9.150880 1624.910278,7.693119 
	C1630.195190,7.284530 1635.489868,6.907597 1640.744141,6.235061 
	C1643.728394,5.853088 1645.179321,4.476681 1642.000000,2.000000 
M3034.180176,2379.593262 
	C3061.993164,2326.147949 3086.074707,2271.058594 3106.462891,2214.376709 
	C3110.254883,2203.834717 3112.698486,2192.807617 3116.635986,2180.700928 
	C3117.111084,2180.247070 3117.860107,2179.874023 3118.021973,2179.327148 
	C3124.825928,2156.343018 3131.228516,2133.233398 3138.434814,2110.376953 
	C3145.523193,2087.893311 3151.041504,2065.056641 3156.069336,2040.379272 
	C3156.814209,2036.972046 3157.541016,2033.560669 3158.306641,2030.158081 
	C3163.781982,2005.825806 3169.680908,1981.578003 3172.237305,1956.686401 
	C3172.763184,1951.567017 3173.668701,1946.475830 3174.619873,1941.413208 
	C3175.947998,1934.346558 3177.483887,1927.318970 3179.571533,1918.840820 
	C3182.856689,1886.807861 3186.490723,1854.805176 3189.284424,1822.729370 
	C3190.751221,1805.886841 3190.746582,1788.916016 3191.818359,1770.169434 
	C3191.934570,1746.598389 3192.697754,1723.008301 3192.004150,1699.461060 
	C3191.125244,1669.626465 3189.062500,1639.826538 3187.788574,1608.291626 
	C3183.680664,1574.197998 3179.572754,1540.104370 3175.657227,1504.395020 
	C3174.389160,1496.521118 3173.330566,1488.606567 3171.808838,1480.781982 
	C3168.642334,1464.496582 3165.230225,1448.259033 3162.059326,1430.368408 
	C3161.357178,1426.819702 3160.801270,1423.234741 3159.929199,1419.728271 
	C3153.815918,1395.146240 3147.637207,1370.580566 3141.525635,1344.502808 
	C3136.203613,1327.003052 3130.881592,1309.503174 3125.559814,1290.533936 
	C3119.187256,1272.978394 3112.847412,1255.410889 3106.432373,1237.870605 
	C3100.561035,1221.816650 3094.608887,1205.792358 3088.452637,1188.260254 
	C3078.776611,1166.177734 3069.100342,1144.095093 3059.225098,1120.656860 
	C3051.780762,1106.000244 3044.336670,1091.343506 3036.771729,1075.306274 
	C3029.746338,1062.207153 3022.720947,1049.108032 3015.451416,1034.656860 
	C3005.826172,1018.379456 2996.201172,1002.101990 2986.228027,984.438538 
	C2972.046875,962.391785 2957.953613,940.287598 2943.629395,918.334229 
	C2939.485352,911.983276 2934.678223,906.065063 2929.799316,898.620117 
	C2899.051514,854.705505 2865.572510,812.944946 2829.714355,773.130066 
	C2813.267090,754.867615 2795.854980,737.473877 2778.277344,718.442566 
	C2776.214600,716.267334 2774.206543,714.036804 2772.080811,711.924866 
	C2681.751953,622.182678 2581.741455,545.094055 2471.204346,481.769501 
	C2385.353027,432.587036 2295.377441,392.715332 2201.175537,362.450989 
	C2122.396973,337.141632 2042.025024,318.886169 1960.031860,307.515808 
	C1910.487915,300.645355 1860.748779,296.190094 1810.817749,294.555603 
	C1738.134888,292.176331 1665.615479,294.963165 1593.327026,303.612091 
	C1543.692627,309.550568 1494.453735,317.663757 1445.735229,328.718658 
	C1324.945068,356.127808 1209.584351,398.400269 1099.781128,455.821228 
	C980.286072,518.310547 871.810486,596.150574 774.088684,689.014160 
	C765.656067,697.027527 757.702759,705.545288 748.350281,714.384338 
	C708.848083,753.404724 672.013794,794.828003 637.794861,838.526550 
	C622.062866,858.616821 607.361877,879.514465 591.089600,900.825012 
	C585.574280,908.733032 579.776855,916.461121 574.597656,924.583435 
	C560.316223,946.980713 546.293518,969.542847 531.109558,992.904663 
	C498.098145,1047.654785 468.960907,1104.412476 444.120148,1163.303467 
	C432.898315,1189.907593 423.099182,1217.111694 411.941833,1245.390137 
	C400.227448,1282.860962 387.528625,1320.058228 377.027252,1357.865967 
	C360.906830,1415.903809 349.028534,1474.914429 341.779358,1534.763672 
	C338.337433,1563.180176 334.891083,1591.628784 332.752594,1620.160767 
	C330.863251,1645.368042 330.786652,1670.710938 329.511047,1697.698242 
	C329.294373,1710.334106 328.761780,1722.973755 328.916260,1735.604980 
	C329.547028,1787.171631 332.330078,1838.617798 338.207703,1889.873169 
	C340.174530,1907.025024 341.704193,1924.239624 344.192505,1941.314941 
	C346.243347,1955.388306 349.239502,1969.334595 352.129639,1983.272339 
	C356.780457,2005.701050 361.689117,2028.076294 366.404236,2051.289795 
	C366.404236,2051.289795 366.845276,2051.980713 366.894073,2053.671631 
	C368.553925,2059.798096 370.213745,2065.924316 371.811035,2073.645020 
	C377.769409,2095.713135 382.994171,2118.012207 389.861115,2139.793945 
	C399.728363,2171.092529 410.310883,2202.188721 421.510101,2233.036621 
	C429.229187,2254.298340 438.508972,2274.993408 447.618286,2297.122070 
	C462.014709,2332.126221 479.132233,2365.820068 497.376190,2400.500000 
	C517.354980,2438.565674 539.836731,2475.150879 563.588257,2512.527344 
	C567.554626,2518.639893 571.134338,2525.052490 575.585571,2530.789062 
	C581.088867,2537.881104 580.896851,2545.014160 578.581238,2553.191650 
	C569.707031,2584.530518 561.187378,2615.970947 552.686218,2647.414062 
	C547.054932,2668.242920 541.680481,2689.141113 535.441284,2711.321289 
	C535.307312,2711.625732 535.132263,2711.919189 535.045227,2712.236572 
	C504.685730,2822.974854 474.330536,2933.714111 443.982849,3044.455811 
	C441.902496,3052.047363 439.880035,3059.654541 437.380280,3068.925049 
	C446.148254,3066.796387 453.466492,3065.143555 460.719177,3063.240723 
	C629.725586,3018.902100 798.738281,2974.587158 967.684326,2930.019043 
	C975.704895,2927.903320 981.939270,2928.545166 989.153381,2932.923584 
	C1031.580444,2958.672363 1074.371460,2983.806885 1118.820679,3005.993408 
	C1260.481445,3076.702881 1409.585938,3123.448975 1566.593994,3144.254883 
	C1604.205811,3149.239014 1642.055054,3152.982666 1679.915771,3155.424561 
	C1756.802124,3160.383789 1833.625122,3158.113037 1910.261230,3150.035889 
	C1936.580933,3147.261719 1962.904785,3144.443848 1988.947510,3139.665283 
	C2017.405884,3134.443115 2045.956299,3129.546875 2074.168701,3123.187012 
	C2250.287598,3083.483154 2413.194092,3012.994629 2562.423340,2911.391602 
	C2593.415283,2890.291016 2623.237549,2867.376709 2652.698486,2844.155762 
	C2674.621826,2826.876221 2695.170898,2807.843018 2716.172363,2789.408447 
	C2725.879150,2780.888184 2735.358154,2772.092529 2744.665771,2763.136475 
	C2757.284912,2750.993896 2769.640625,2738.577393 2783.292480,2725.787598 
	C2785.399170,2723.799072 2787.505859,2721.810303 2790.702881,2719.268311 
	C2791.427490,2718.302246 2792.152344,2717.336426 2794.059570,2715.776367 
	C2798.540039,2710.502930 2802.931152,2705.150391 2807.522949,2699.975830 
	C2813.398438,2693.353760 2819.591797,2687.009521 2825.374023,2680.309326 
	C2842.196289,2660.816650 2859.221924,2641.484375 2875.516846,2621.556641 
	C2889.199951,2604.823242 2902.113281,2587.450439 2915.088379,2570.151367 
	C2922.750732,2559.936035 2929.865479,2549.309814 2937.233398,2538.873535 
	C2942.908691,2530.834717 2948.595215,2522.803955 2955.424316,2513.953857 
	C2964.505127,2499.361816 2973.754150,2484.871338 2982.614746,2470.146729 
	C2990.013916,2457.850342 2997.000977,2445.304688 3004.086426,2432.821777 
	C3007.954102,2426.008057 3011.597656,2419.067627 3015.431152,2412.233887 
	C3021.356934,2401.670166 3027.358643,2391.148926 3034.180176,2379.593262 
z"/>
<path fill="transparent" opacity="1.000000" stroke="none" 
	d="
M3502.000000,1878.000000 
	C3502.000000,2424.580811 3502.000000,2971.161865 3502.000000,3518.000000 
	C2341.934570,3518.000000 1181.869141,3518.000000 20.304737,3517.355469 
	C21.707016,3515.346436 24.479364,3513.492676 27.528355,3512.690186 
	C82.100098,3498.327881 136.703552,3484.086182 191.303818,3469.832275 
	C243.337341,3456.248291 295.389771,3442.736572 347.406921,3429.090576 
	C411.933746,3412.162598 476.419922,3395.079590 540.947815,3378.155518 
	C599.713928,3362.742920 658.529114,3347.517334 717.292297,3332.093506 
	C785.358643,3314.227539 853.394348,3296.245117 921.433594,3278.276123 
	C925.494141,3277.203857 928.970337,3277.727051 932.847839,3279.688477 
	C966.063049,3296.491211 999.114075,3313.661377 1032.777222,3329.526611 
	C1096.543091,3359.578857 1162.297607,3384.644775 1229.479736,3406.024902 
	C1297.877563,3427.791992 1367.287720,3445.376221 1437.847168,3458.614258 
	C1494.251831,3469.197021 1550.966675,3477.418213 1608.152954,3481.971680 
	C1643.864746,3484.815186 1679.668701,3487.491943 1715.464722,3488.029297 
	C1759.034424,3488.683838 1802.647095,3487.322021 1846.225220,3486.207520 
	C1866.430542,3485.690918 1886.641602,3484.158936 1906.772827,3482.266113 
	C1938.103638,3479.320801 1969.423462,3476.116211 2000.649292,3472.229492 
	C2056.320312,3465.299805 2111.328125,3454.475586 2165.857910,3441.464844 
	C2230.829834,3425.962646 2294.710205,3406.663086 2357.479492,3383.745361 
	C2434.383057,3355.667236 2508.930420,3322.273926 2581.078369,3283.650879 
	C2647.397461,3248.148193 2711.101562,3208.352295 2772.340088,3164.617676 
	C2843.335449,3113.914795 2910.185547,3058.205322 2972.760010,2997.480713 
	C2999.484863,2971.545898 3024.844482,2944.179932 3050.342773,2917.012451 
	C3080.364990,2885.025146 3108.135254,2851.102295 3135.196777,2816.575195 
	C3201.445312,2732.048584 3259.090820,2641.996582 3308.751953,2546.831543 
	C3341.067871,2484.905273 3369.415283,2421.161865 3393.854980,2355.724365 
	C3415.130859,2298.757568 3433.356201,2240.823242 3448.619141,2181.928223 
	C3461.946533,2130.502930 3473.188232,2078.636963 3481.415771,2026.198120 
	C3487.370117,1988.248291 3491.394775,1949.992065 3496.036377,1911.842651 
	C3497.276611,1901.647461 3497.572266,1891.339355 3498.419434,1881.092773 
	C3498.579102,1879.161377 3498.188721,1875.976074 3502.000000,1878.000000 
z"/>
<path fill="transparent" opacity="1.000000" stroke="none" 
	d="
M979.610168,187.803101 
	C975.953003,189.399994 972.295837,190.996887 967.510254,193.154633 
	C958.095520,198.395996 949.809204,203.076538 941.522827,207.757080 
	C940.487427,208.081116 939.451965,208.405167 937.407715,209.220642 
	C930.818420,213.036911 925.237854,216.361725 919.657349,219.686554 
	C919.657349,219.686554 919.929260,219.949448 919.108154,219.851227 
	C915.920105,220.956116 913.508118,222.078781 911.192627,223.374100 
	C859.785522,252.132629 810.004150,283.468964 761.780518,317.302185 
	C697.214844,362.600769 635.862244,411.904968 578.096619,465.576019 
	C554.478027,487.520477 531.756836,510.460693 509.196960,533.505493 
	C490.831573,552.265625 473.002289,571.576477 455.482117,591.132996 
	C406.404205,645.915222 361.528412,704.020935 320.013336,764.707520 
	C263.365295,847.515442 214.387939,934.710449 172.791550,1025.973755 
	C141.359070,1094.937256 114.647987,1165.754150 92.682381,1238.327393 
	C67.746407,1320.714478 48.892345,1404.459961 36.223476,1489.607178 
	C28.757149,1539.788208 23.785088,1590.238403 20.498436,1640.830444 
	C18.689411,1668.677368 17.899273,1696.630981 17.828487,1724.539551 
	C17.748375,1756.124512 18.671375,1787.723999 19.761940,1819.296265 
	C20.540451,1841.834473 21.881762,1864.374512 23.758604,1886.848022 
	C25.936022,1912.920776 28.791780,1938.941772 31.679310,1964.948975 
	C36.437855,2007.807861 43.792530,2050.263916 52.312752,2092.516846 
	C65.317642,2157.010254 81.986649,2220.558350 102.222473,2283.157227 
	C119.702713,2337.231689 139.785767,2390.342773 162.548355,2442.410889 
	C187.060699,2498.481689 214.107620,2553.317627 244.903488,2606.222168 
	C248.970444,2613.208740 249.483337,2619.245605 247.425400,2626.675781 
	C229.265915,2692.240723 211.337936,2757.869629 193.336288,2823.478271 
	C170.591568,2906.373047 147.832001,2989.263916 125.097122,3072.161377 
	C101.397392,3158.577393 77.694839,3244.992432 54.041901,3331.421387 
	C41.077255,3378.794678 28.219284,3426.197266 15.297596,3473.582520 
	C12.590880,3483.508057 9.944627,3493.454346 6.970081,3503.300049 
	C6.322205,3505.444580 6.877054,3509.904785 2.000000,3508.000000 
	C2.000000,2339.531494 2.000000,1171.062866 2.000000,2.000000 
	C548.041626,2.000000 1094.083496,2.000000 1641.062744,2.000000 
	C1645.179321,4.476681 1643.728394,5.853088 1640.744141,6.235061 
	C1635.489868,6.907597 1630.195190,7.284530 1624.910278,7.693119 
	C1606.054688,9.150880 1587.082520,9.710786 1568.362549,12.184438 
	C1530.680054,17.163801 1492.911865,22.003199 1455.589355,29.067722 
	C1410.931152,37.520802 1366.554688,47.621647 1322.327026,58.146832 
	C1275.514038,69.287262 1229.766235,84.210129 1184.368774,100.145004 
	C1165.176758,106.881561 1145.838013,113.246773 1126.882568,120.596870 
	C1110.003662,127.141724 1093.500610,134.676315 1076.952759,142.045456 
	C1068.939087,145.614059 1061.202271,149.804718 1052.226807,153.564896 
	C1048.016846,154.909042 1044.920288,156.402054 1041.823608,157.895081 
	C1041.823608,157.895081 1040.913574,157.888229 1039.747192,157.998718 
	C1023.041748,165.525162 1007.502747,172.941132 991.425049,180.250183 
	C990.579529,180.754700 990.272705,181.366180 989.965881,181.977661 
	C989.965881,181.977661 990.002441,181.997833 989.277405,182.044739 
	C985.571655,183.995453 982.590942,185.899277 979.610168,187.803101 
z"/>
<path fill="transparent" opacity="1.000000" stroke="none" 
	d="
M2473.965088,154.114319 
	C2472.036133,153.836136 2469.580078,154.221588 2468.261475,153.174683 
	C2457.664551,144.759964 2445.138672,141.013306 2432.518799,137.010956 
	C2424.488525,134.464081 2417.308350,129.342468 2409.381348,126.341621 
	C2388.641846,118.490341 2367.431396,111.834320 2346.900391,103.491524 
	C2310.247803,88.597702 2272.226562,78.074120 2234.409912,66.885071 
	C2216.712891,61.648994 2198.811523,57.042664 2180.863525,52.730721 
	C2157.466064,47.109604 2134.020020,41.614769 2110.425293,36.915802 
	C2092.087891,33.263813 2073.474854,31.011683 2055.017822,27.935221 
	C2047.726685,26.719893 2040.575684,24.635527 2033.273193,23.522589 
	C2023.610352,22.049887 2013.845093,21.263685 2004.155151,19.951103 
	C1997.142212,19.001156 1990.178711,17.683817 1983.197998,16.501509 
	C1982.572388,16.395586 1981.995239,15.933610 1981.374512,15.879304 
	C1966.366821,14.566379 1951.341187,13.436961 1936.351685,11.945866 
	C1926.925903,11.008251 1917.572510,9.353914 1908.150879,8.359835 
	C1899.587402,7.456283 1890.962891,7.132811 1882.397461,6.243958 
	C1880.949829,6.093736 1879.664795,4.377297 1879.152344,2.692233 
	C2420.520264,2.000000 2961.040771,2.000000 3502.000000,2.000000 
	C3502.000000,538.041687 3502.000000,1074.083496 3501.242920,1611.663330 
	C3499.783691,1611.800537 3498.600098,1610.446777 3498.458496,1608.991577 
	C3497.623535,1600.413574 3497.273193,1591.784790 3496.312744,1583.223389 
	C3493.099609,1554.585449 3489.980957,1525.932251 3486.307617,1497.351440 
	C3479.070801,1441.043091 3467.917236,1385.460571 3454.602051,1330.292969 
	C3438.765869,1264.680298 3418.981934,1200.269287 3395.548096,1136.989746 
	C3368.854492,1064.906860 3337.489258,994.866638 3301.272705,927.085815 
	C3270.234375,868.995667 3236.682373,812.335815 3198.359131,758.697144 
	C3173.821289,724.353210 3149.167969,690.019836 3122.947021,656.966431 
	C3079.956055,602.773315 3033.727783,551.361084 2983.841553,503.348236 
	C2965.151611,485.359985 2946.307617,467.526794 2927.304932,449.869293 
	C2893.199707,418.178314 2857.220459,388.678436 2820.331787,360.330353 
	C2756.168213,311.022552 2688.858398,266.384247 2618.445801,226.481552 
	C2606.630859,219.785950 2594.366455,213.883408 2582.309570,207.614456 
	C2582.309570,207.614471 2582.057129,207.947876 2581.933105,207.167908 
	C2570.590332,200.817902 2559.371338,195.247849 2548.152588,189.677780 
	C2540.704834,185.776215 2533.257324,181.874664 2524.747070,177.278534 
	C2514.429443,172.565964 2505.174072,168.547989 2495.918701,164.529984 
	C2494.509033,163.664276 2493.099609,162.798584 2490.714355,161.220001 
	C2484.480957,158.376190 2479.223145,156.245239 2473.965088,154.114319 
z"/>
<path fill="transparent" opacity="1.000000" stroke="none" 
	d="
M2582.281494,208.328720 
	C2594.366455,213.883408 2606.630859,219.785950 2618.445801,226.481552 
	C2688.858398,266.384247 2756.168213,311.022552 2820.331787,360.330353 
	C2857.220459,388.678436 2893.199707,418.178314 2927.304932,449.869293 
	C2946.307617,467.526794 2965.151611,485.359985 2983.841553,503.348236 
	C3033.727783,551.361084 3079.956055,602.773315 3122.947021,656.966431 
	C3149.167969,690.019836 3173.821289,724.353210 3198.359131,758.697144 
	C3236.682373,812.335815 3270.234375,868.995667 3301.272705,927.085815 
	C3337.489258,994.866638 3368.854492,1064.906860 3395.548096,1136.989746 
	C3418.981934,1200.269287 3438.765869,1264.680298 3454.602051,1330.292969 
	C3467.917236,1385.460571 3479.070801,1441.043091 3486.307617,1497.351440 
	C3489.980957,1525.932251 3493.099609,1554.585449 3496.312744,1583.223389 
	C3497.273193,1591.784790 3497.623535,1600.413574 3498.458496,1608.991577 
	C3498.600098,1610.446777 3499.783691,1611.800537 3501.242920,1612.600586 
	C3502.000000,1700.041748 3502.000000,1788.083618 3502.000000,1877.062744 
	C3498.188721,1875.976074 3498.579102,1879.161377 3498.419434,1881.092773 
	C3497.572266,1891.339355 3497.276611,1901.647461 3496.036377,1911.842651 
	C3491.394775,1949.992065 3487.370117,1988.248291 3481.415771,2026.198120 
	C3473.188232,2078.636963 3461.946533,2130.502930 3448.619141,2181.928223 
	C3433.356201,2240.823242 3415.130859,2298.757568 3393.854980,2355.724365 
	C3369.415283,2421.161865 3341.067871,2484.905273 3308.751953,2546.831543 
	C3259.090820,2641.996582 3201.445312,2732.048584 3135.196777,2816.575195 
	C3108.135254,2851.102295 3080.364990,2885.025146 3050.342773,2917.012451 
	C3024.844482,2944.179932 2999.484863,2971.545898 2972.760010,2997.480713 
	C2910.185547,3058.205322 2843.335449,3113.914795 2772.340088,3164.617676 
	C2711.101562,3208.352295 2647.397461,3248.148193 2581.078369,3283.650879 
	C2508.930420,3322.273926 2434.383057,3355.667236 2357.479492,3383.745361 
	C2294.710205,3406.663086 2230.829834,3425.962646 2165.857910,3441.464844 
	C2111.328125,3454.475586 2056.320312,3465.299805 2000.649292,3472.229492 
	C1969.423462,3476.116211 1938.103638,3479.320801 1906.772827,3482.266113 
	C1886.641602,3484.158936 1866.430542,3485.690918 1846.225220,3486.207520 
	C1802.647095,3487.322021 1759.034424,3488.683838 1715.464722,3488.029297 
	C1679.668701,3487.491943 1643.864746,3484.815186 1608.152954,3481.971680 
	C1550.966675,3477.418213 1494.251831,3469.197021 1437.847168,3458.614258 
	C1367.287720,3445.376221 1297.877563,3427.791992 1229.479736,3406.024902 
	C1162.297607,3384.644775 1096.543091,3359.578857 1032.777222,3329.526611 
	C999.114075,3313.661377 966.063049,3296.491211 932.847839,3279.688477 
	C928.970337,3277.727051 925.494141,3277.203857 921.433594,3278.276123 
	C853.394348,3296.245117 785.358643,3314.227539 717.292297,3332.093506 
	C658.529114,3347.517334 599.713928,3362.742920 540.947815,3378.155518 
	C476.419922,3395.079590 411.933746,3412.162598 347.406921,3429.090576 
	C295.389771,3442.736572 243.337341,3456.248291 191.303818,3469.832275 
	C136.703552,3484.086182 82.100098,3498.327881 27.528355,3512.690186 
	C24.479364,3513.492676 21.707016,3515.346436 19.402927,3517.355469 
	C14.222168,3518.000000 8.444336,3518.000000 2.000000,3518.000000 
	C2.000000,3515.368408 2.000000,3512.684082 2.000000,3509.000000 
	C6.877054,3509.904785 6.322205,3505.444580 6.970081,3503.300049 
	C9.944627,3493.454346 12.590880,3483.508057 15.297596,3473.582520 
	C28.219284,3426.197266 41.077255,3378.794678 54.041901,3331.421387 
	C77.694839,3244.992432 101.397392,3158.577393 125.097122,3072.161377 
	C147.832001,2989.263916 170.591568,2906.373047 193.336288,2823.478271 
	C211.337936,2757.869629 229.265915,2692.240723 247.425400,2626.675781 
	C249.483337,2619.245605 248.970444,2613.208740 244.903488,2606.222168 
	C214.107620,2553.317627 187.060699,2498.481689 162.548355,2442.410889 
	C139.785767,2390.342773 119.702713,2337.231689 102.222473,2283.157227 
	C81.986649,2220.558350 65.317642,2157.010254 52.312752,2092.516846 
	C43.792530,2050.263916 36.437855,2007.807861 31.679310,1964.948975 
	C28.791780,1938.941772 25.936022,1912.920776 23.758604,1886.848022 
	C21.881762,1864.374512 20.540451,1841.834473 19.761940,1819.296265 
	C18.671375,1787.723999 17.748375,1756.124512 17.828487,1724.539551 
	C17.899273,1696.630981 18.689411,1668.677368 20.498436,1640.830444 
	C23.785088,1590.238403 28.757149,1539.788208 36.223476,1489.607178 
	C48.892345,1404.459961 67.746407,1320.714478 92.682381,1238.327393 
	C114.647987,1165.754150 141.359070,1094.937256 172.791550,1025.973755 
	C214.387939,934.710449 263.365295,847.515442 320.013336,764.707520 
	C361.528412,704.020935 406.404205,645.915222 455.482117,591.132996 
	C473.002289,571.576477 490.831573,552.265625 509.196960,533.505493 
	C531.756836,510.460693 554.478027,487.520477 578.096619,465.576019 
	C635.862244,411.904968 697.214844,362.600769 761.780518,317.302185 
	C810.004150,283.468964 859.785522,252.132629 911.192627,223.374100 
	C913.508118,222.078781 915.920105,220.956116 919.002808,219.694244 
	C918.209229,221.544266 917.095520,224.159988 915.132751,225.258163 
	C869.837219,250.600937 825.844482,278.088348 783.437561,307.940643 
	C750.617004,331.044647 718.671814,355.441040 687.010071,380.125671 
	C665.304810,397.047943 644.480835,415.139435 623.770142,433.287140 
	C606.027649,448.833923 588.904846,465.095520 571.696045,481.241364 
	C556.895874,495.127380 541.835327,508.794495 527.835999,523.461365 
	C508.115448,544.122253 489.135193,565.497803 470.092468,586.794983 
	C456.373840,602.137634 442.859680,617.675110 429.646637,633.454224 
	C418.998932,646.169739 408.477722,659.040833 398.706757,672.431335 
	C373.070770,707.563721 346.935242,742.389465 322.785950,778.531555 
	C301.389282,810.553955 281.549530,843.703308 262.575378,877.233887 
	C242.754883,912.260071 224.081192,947.985779 206.243942,984.067078 
	C192.851944,1011.156616 181.505219,1039.261353 169.375107,1066.969727 
	C148.683884,1114.234375 132.014847,1162.999390 116.355873,1212.084595 
	C102.136818,1256.656128 89.781509,1301.799194 80.132629,1347.598877 
	C73.514389,1379.013062 67.694374,1410.602051 61.953472,1442.192139 
	C58.287323,1462.365845 55.077808,1482.637939 52.302673,1502.953125 
	C50.286983,1517.708740 49.376579,1532.613403 47.867058,1547.440796 
	C45.989880,1565.879395 43.493282,1584.271606 42.204460,1602.749268 
	C40.864380,1621.961792 40.434223,1641.247314 39.983288,1660.509888 
	C39.181400,1694.763794 38.322144,1729.022827 38.164177,1763.282837 
	C38.078472,1781.870850 39.129787,1800.479370 40.144810,1819.052734 
	C41.121140,1836.917969 42.431957,1854.775879 44.114319,1872.588257 
	C45.669544,1889.054565 47.934032,1905.453369 49.845768,1921.886719 
	C51.949471,1939.970215 53.510788,1958.133301 56.206432,1976.127319 
	C59.834267,2000.343506 63.610146,2024.578979 68.602791,2048.539551 
	C76.507820,2086.476562 84.678818,2124.394043 94.185501,2161.953125 
	C107.148392,2213.167480 122.655144,2263.678711 141.467072,2313.087891 
	C154.232193,2346.614990 166.779770,2380.266602 180.944733,2413.208984 
	C199.746384,2456.934814 220.544968,2499.770264 243.644653,2541.437744 
	C250.738907,2554.234375 257.750854,2567.076416 264.882538,2579.852051 
	C267.066010,2583.763428 267.804413,2587.286865 266.456604,2592.053467 
	C257.521942,2623.650635 249.140793,2655.404297 240.486984,2687.081543 
	C231.743744,2719.086182 222.883102,2751.059082 214.092987,2783.051025 
	C203.809143,2820.479492 193.529419,2857.908936 183.279404,2895.346436 
	C176.183716,2921.262939 169.166428,2947.200928 162.069077,2973.116943 
	C151.816925,3010.553467 141.504547,3047.973389 131.254776,3085.410400 
	C124.159386,3111.326172 117.156738,3137.267090 110.057899,3163.181885 
	C99.802917,3200.617920 89.483154,3238.036377 79.219780,3275.469971 
	C70.799232,3306.182373 62.414959,3336.904541 54.024742,3367.625244 
	C45.196568,3399.948975 36.377987,3432.275146 27.562643,3464.602539 
	C26.520403,3468.424805 25.525476,3472.259521 24.109711,3477.590820 
	C28.657515,3476.617432 32.361355,3475.969238 35.988914,3475.027344 
	C96.662407,3459.271484 157.331848,3443.499756 217.990326,3427.686035 
	C261.318512,3416.390381 304.633606,3405.044434 347.946075,3393.688477 
	C401.206268,3379.724121 454.453094,3365.708740 507.713928,3351.747070 
	C563.861694,3337.028809 620.023621,3322.365234 676.171143,3307.645996 
	C729.430359,3293.683594 782.692566,3279.731934 835.926880,3265.675049 
	C866.716614,3257.544678 897.466553,3249.262695 928.202209,3240.930176 
	C933.293396,3239.549805 937.959351,3239.739990 942.653931,3242.253906 
	C954.975830,3248.851318 967.218445,3255.623047 979.768127,3261.762695 
	C1000.987244,3272.143555 1022.290771,3282.372559 1043.797241,3292.140625 
	C1064.673706,3301.622559 1085.700928,3310.811035 1106.934570,3319.459229 
	C1130.931396,3329.232910 1155.068970,3338.713867 1179.446533,3347.485107 
	C1203.510620,3356.143311 1227.719116,3364.560791 1252.279663,3371.642822 
	C1291.786499,3383.034424 1331.498901,3393.783936 1371.378784,3403.791504 
	C1409.280884,3413.302734 1447.684204,3420.593018 1486.393066,3426.161621 
	C1512.912964,3429.977051 1539.352417,3434.405518 1565.929810,3437.750488 
	C1583.337158,3439.940918 1600.968140,3440.297852 1618.423950,3442.174072 
	C1640.559082,3444.552734 1662.813965,3444.768066 1684.944458,3446.433350 
	C1720.905640,3449.139648 1756.822021,3447.196045 1792.743652,3447.997314 
	C1802.071777,3448.205322 1811.431030,3448.396484 1820.737671,3447.890625 
	C1838.270142,3446.937500 1855.773193,3445.451660 1873.291382,3444.227295 
	C1884.208740,3443.463623 1895.151733,3442.996582 1906.046753,3441.998291 
	C1924.830078,3440.277100 1943.589600,3438.288818 1962.350342,3436.328857 
	C1975.523071,3434.952393 1988.712524,3433.670410 2001.837280,3431.918213 
	C2014.955078,3430.167725 2028.042114,3428.109863 2041.070679,3425.783936 
	C2061.592529,3422.120850 2082.174805,3418.662354 2102.514648,3414.142090 
	C2138.416748,3406.164307 2174.317871,3398.081299 2209.922852,3388.892822 
	C2257.231201,3376.684326 2303.526367,3361.135742 2349.493408,3344.556885 
	C2398.638184,3326.832275 2446.885010,3307.030762 2493.812988,3284.087646 
	C2522.810059,3269.910645 2552.118164,3256.228760 2580.281738,3240.522705 
	C2616.837891,3220.135742 2652.620605,3198.325684 2688.323730,3176.455322 
	C2732.554443,3149.361572 2774.141602,3118.404053 2815.378906,3087.031738 
	C2832.006592,3074.381836 2847.810547,3060.640137 2863.846924,3047.225098 
	C2880.898438,3032.961426 2898.072510,3018.822754 2914.651855,3004.023193 
	C2929.537354,2990.735596 2943.850586,2976.790527 2958.121338,2962.833740 
	C2974.324707,2946.986328 2990.584229,2931.165527 3006.118164,2914.672852 
	C3023.875488,2895.819336 3040.995117,2876.357422 3058.135010,2856.933350 
	C3069.770508,2843.746826 3081.321777,2830.455566 3092.279297,2816.708008 
	C3112.339111,2791.540527 3132.589600,2766.480713 3151.539307,2740.485596 
	C3172.080811,2712.307373 3192.018555,2683.616943 3210.768066,2654.224121 
	C3230.416748,2623.422363 3249.030273,2591.905029 3266.823975,2559.991211 
	C3284.159912,2528.898682 3300.665527,2497.283447 3316.090576,2465.202637 
	C3330.483643,2435.269043 3343.150635,2404.496826 3356.266602,2373.960205 
	C3374.254883,2332.079834 3389.254639,2289.073242 3403.044434,2245.669678 
	C3418.416504,2197.285645 3432.131836,2148.422607 3442.252441,2098.623535 
	C3448.119629,2069.753906 3454.278809,2040.934570 3459.535400,2011.952759 
	C3463.076416,1992.430298 3465.407959,1972.681641 3468.028320,1953.000610 
	C3470.779297,1932.341675 3473.382568,1911.660034 3475.742920,1890.953247 
	C3476.868652,1881.078491 3477.274170,1871.121826 3478.019043,1861.203369 
	C3479.284180,1844.354492 3480.932373,1827.523804 3481.713867,1810.652710 
	C3482.361328,1796.680908 3481.791992,1782.657227 3482.122314,1768.665161 
	C3482.545898,1750.734741 3483.895996,1732.810547 3483.821289,1714.887939 
	C3483.723145,1691.293579 3482.922607,1667.690186 3481.871094,1644.115479 
	C3480.955322,1623.582886 3479.713623,1603.043457 3477.808105,1582.582275 
	C3475.753174,1560.515747 3473.045166,1538.498291 3470.109131,1516.527954 
	C3465.595459,1482.751099 3461.382568,1448.906494 3455.646240,1415.328979 
	C3451.021484,1388.255493 3444.292725,1361.542969 3438.568848,1334.654907 
	C3426.873047,1279.714844 3411.029297,1225.909668 3393.130371,1172.741943 
	C3378.924805,1130.545166 3363.548096,1088.720459 3345.111572,1048.136108 
	C3329.155029,1013.010986 3313.702393,977.604858 3296.254150,943.222717 
	C3274.593994,900.541016 3251.649170,858.471436 3225.463379,818.309937 
	C3207.496826,790.754395 3189.937012,762.897522 3170.975830,736.036377 
	C3151.655518,708.667297 3131.081055,682.168030 3110.599365,655.640137 
	C3097.020996,638.053406 3082.693604,621.042297 3068.588623,603.866150 
	C3063.743896,597.966248 3058.652588,592.259705 3053.505615,586.618530 
	C3044.542480,576.794617 3035.619629,566.924255 3026.375977,557.367615 
	C3001.838867,532.000061 2977.587402,506.330933 2952.356689,481.667480 
	C2933.370605,463.108093 2913.229004,445.708832 2893.260254,428.182587 
	C2875.802490,412.860352 2858.159180,397.720154 2840.069824,383.155426 
	C2818.619141,365.884399 2796.984131,348.792175 2774.729248,332.583282 
	C2750.302734,314.792511 2725.555420,297.348175 2700.081299,281.113068 
	C2668.426758,260.939240 2635.862549,242.194290 2603.740479,222.751205 
	C2596.474365,218.353226 2589.410400,213.621262 2582.281494,208.328720 
z"/>
<path fill="#2BB640" opacity="1.000000" stroke="none" 
	d="
M2792.876953,2716.370361 
	C2792.152344,2717.336426 2791.427490,2718.302246 2789.560059,2719.282715 
	C2782.801758,2718.701660 2782.450928,2719.090088 2782.109619,2726.278809 
	C2769.640625,2738.577393 2757.284912,2750.993896 2744.665771,2763.136475 
	C2735.358154,2772.092529 2725.879150,2780.888184 2716.172363,2789.408447 
	C2695.170898,2807.843018 2674.621826,2826.876221 2652.698486,2844.155762 
	C2623.237549,2867.376709 2593.415283,2890.291016 2562.423340,2911.391602 
	C2413.194092,3012.994629 2250.287598,3083.483154 2074.168701,3123.187012 
	C2045.956299,3129.546875 2017.405884,3134.443115 1988.947510,3139.665283 
	C1962.904785,3144.443848 1936.580933,3147.261719 1910.261230,3150.035889 
	C1833.625122,3158.113037 1756.802124,3160.383789 1679.915771,3155.424561 
	C1642.055054,3152.982666 1604.205811,3149.239014 1566.593994,3144.254883 
	C1409.585938,3123.448975 1260.481445,3076.702881 1118.820679,3005.993408 
	C1074.371460,2983.806885 1031.580444,2958.672363 989.153381,2932.923584 
	C981.939270,2928.545166 975.704895,2927.903320 967.684326,2930.019043 
	C798.738281,2974.587158 629.725586,3018.902100 460.719177,3063.240723 
	C453.466492,3065.143555 446.148254,3066.796387 437.380280,3068.925049 
	C439.880035,3059.654541 441.902496,3052.047363 443.982849,3044.455811 
	C474.330536,2933.714111 504.685730,2822.974854 535.045227,2712.236572 
	C535.132263,2711.919189 535.307312,2711.625732 536.632812,2710.780273 
	C543.065674,2710.826172 548.307068,2711.926758 553.548523,2711.927246 
	C1293.477905,2712.003662 2033.407227,2712.000000 2773.336670,2712.000000 
	C2776.003174,2712.000000 2778.713135,2712.306641 2781.326416,2711.933594 
	C2786.105469,2711.251465 2789.593750,2713.424805 2792.876953,2716.370361 
z"/>
<path fill="#56D063" opacity="1.000000" stroke="none" 
	d="
M749.526855,713.828735 
	C757.702759,705.545288 765.656067,697.027527 774.088684,689.014160 
	C871.810486,596.150574 980.286072,518.310547 1099.781128,455.821228 
	C1209.584351,398.400269 1324.945068,356.127808 1445.735229,328.718658 
	C1494.453735,317.663757 1543.692627,309.550568 1593.327026,303.612091 
	C1665.615479,294.963165 1738.134888,292.176331 1810.817749,294.555603 
	C1860.748779,296.190094 1910.487915,300.645355 1960.031860,307.515808 
	C2042.025024,318.886169 2122.396973,337.141632 2201.175537,362.450989 
	C2295.377441,392.715332 2385.353027,432.587036 2471.204346,481.769501 
	C2581.741455,545.094055 2681.751953,622.182678 2772.080811,711.924866 
	C2774.206543,714.036804 2776.214600,716.267334 2777.716064,719.146606 
	C2763.439697,714.455627 2749.074707,716.024780 2734.885498,716.024170 
	C2079.329102,715.996399 1423.772949,716.006042 768.216675,715.910217 
	C761.986633,715.909302 755.756775,714.552551 749.526855,713.828735 
z"/>
<path fill="#30BA45" opacity="1.000000" stroke="none" 
	d="
M2793.468262,2716.073242 
	C2789.593750,2713.424805 2786.105469,2711.251465 2781.326416,2711.933594 
	C2778.713135,2712.306641 2776.003174,2712.000000 2773.336670,2712.000000 
	C2033.407227,2712.000000 1293.477905,2712.003662 553.548523,2711.927246 
	C548.307068,2711.926758 543.065674,2710.826172 537.007690,2710.123535 
	C541.680481,2689.141113 547.054932,2668.242920 552.686218,2647.414062 
	C561.187378,2615.970947 569.707031,2584.530518 578.581238,2553.191650 
	C580.896851,2545.014160 581.088867,2537.881104 575.585571,2530.789062 
	C571.134338,2525.052490 567.554626,2518.639893 563.757446,2511.177734 
	C565.708557,2505.833984 568.359985,2503.412109 573.164795,2503.943848 
	C576.126465,2504.271240 579.154297,2504.000244 582.152405,2504.000244 
	C1035.867920,2504.000000 1489.583374,2504.004150 1943.298950,2503.972412 
	C1953.282959,2503.971680 1963.211182,2503.739502 1972.836670,2507.219727 
	C1976.273926,2508.462402 1980.114014,2509.159180 1983.163574,2504.909180 
	C2020.393188,2515.089844 2056.620850,2526.016846 2093.327881,2534.980225 
	C2137.656738,2545.804443 2182.671387,2553.159424 2228.538330,2551.988770 
	C2249.118896,2551.463623 2269.645752,2549.061523 2290.214111,2547.786133 
	C2328.927979,2545.385498 2365.350830,2534.585205 2400.334961,2518.308838 
	C2408.151855,2514.672607 2416.044922,2511.199707 2424.337891,2508.253174 
	C2427.584961,2508.687500 2430.919434,2509.434814 2433.113037,2508.183105 
	C2439.809570,2504.361572 2446.838623,2503.932373 2454.258057,2503.936279 
	C2615.651855,2504.019775 2777.045410,2504.000000 2938.439209,2504.000000 
	C2942.383301,2504.000000 2946.327393,2504.000000 2950.798584,2504.000000 
	C2952.076416,2507.956299 2953.176758,2511.363037 2954.276855,2514.769775 
	C2948.595215,2522.803955 2942.908691,2530.834717 2937.233398,2538.873535 
	C2929.865479,2549.309814 2922.750732,2559.936035 2915.088379,2570.151367 
	C2902.113281,2587.450439 2889.199951,2604.823242 2875.516846,2621.556641 
	C2859.221924,2641.484375 2842.196289,2660.816650 2825.374023,2680.309326 
	C2819.591797,2687.009521 2813.398438,2693.353760 2807.522949,2699.975830 
	C2802.931152,2705.150391 2798.540039,2710.502930 2793.468262,2716.073242 
z"/>
<path fill="#51CD5E" opacity="1.000000" stroke="none" 
	d="
M748.938599,714.106567 
	C755.756775,714.552551 761.986633,715.909302 768.216675,715.910217 
	C1423.772949,716.006042 2079.329102,715.996399 2734.885498,716.024170 
	C2749.074707,716.024780 2763.439697,714.455627 2778.017578,719.768433 
	C2795.854980,737.473877 2813.267090,754.867615 2829.714355,773.130066 
	C2865.572510,812.944946 2899.051514,854.705505 2929.037354,899.300903 
	C2923.610596,899.987732 2918.945801,899.999268 2914.281006,899.999268 
	C2145.249756,900.000061 1376.218506,899.999878 607.187256,900.001953 
	C602.189331,900.001953 597.191345,900.030701 592.193420,900.046021 
	C607.361877,879.514465 622.062866,858.616821 637.794861,838.526550 
	C672.013794,794.828003 708.848083,753.404724 748.938599,714.106567 
z"/>
<path fill="#41C452" opacity="1.000000" stroke="none" 
	d="
M3187.510254,1610.011719 
	C3189.062500,1639.826538 3191.125244,1669.626465 3192.004150,1699.461060 
	C3192.697754,1723.008301 3191.934570,1746.598389 3190.715332,1771.087036 
	C2610.446289,1772.003052 2031.280273,1772.001465 1452.114258,1772.000977 
	C1449.781616,1772.000977 1447.448242,1772.057617 1445.116577,1772.013184 
	C1440.714478,1771.929199 1438.226685,1773.964600 1437.255371,1778.078491 
	C1401.493042,1732.270020 1369.151489,1684.875854 1340.300415,1635.154907 
	C1336.201538,1628.090698 1333.940796,1619.959839 1331.689941,1612.033203 
	C1336.778931,1611.162354 1341.007202,1610.072510 1345.235474,1610.072021 
	C1959.327026,1610.000366 2573.418701,1610.007812 3187.510254,1610.011719 
z"/>
<path fill="#3DC14E" opacity="1.000000" stroke="none" 
	d="
M366.488861,2050.474121 
	C361.689117,2028.076294 356.780457,2005.701050 352.129639,1983.272339 
	C349.239502,1969.334595 346.243347,1955.388306 344.192505,1941.314941 
	C341.704193,1924.239624 340.174530,1907.025024 338.207703,1889.873169 
	C332.330078,1838.617798 329.547028,1787.171631 328.916260,1735.604980 
	C328.761780,1722.973755 329.294373,1710.334106 330.654297,1696.848389 
	C541.785339,1695.998901 751.773071,1696.006958 961.760864,1695.983032 
	C975.625854,1695.981445 989.634705,1694.732910 1002.995667,1702.225586 
	C1026.476562,1736.462524 1049.480591,1770.270020 1072.361084,1804.161011 
	C1118.935059,1873.147095 1168.976074,1939.493408 1223.223877,2002.643066 
	C1236.209717,2017.759888 1249.266846,2032.815552 1261.427490,2047.948730 
	C1254.326294,2048.665283 1248.089111,2049.914307 1241.851440,2049.916260 
	C955.386047,2050.012451 668.920654,2049.997314 382.455261,2050.020020 
	C377.133148,2050.020264 371.811005,2050.316406 366.488861,2050.474121 
z"/>
<path fill="#45C655" opacity="1.000000" stroke="none" 
	d="
M1002.463013,1701.833984 
	C989.634705,1694.732910 975.625854,1695.981445 961.760864,1695.983032 
	C751.773071,1696.006958 541.785339,1695.998901 330.853577,1695.996216 
	C330.786652,1670.710938 330.863251,1645.368042 332.752594,1620.160767 
	C334.891083,1591.628784 338.337433,1563.180176 341.779358,1534.763672 
	C349.028534,1474.914429 360.906830,1415.903809 377.027252,1357.865967 
	C387.528625,1320.058228 400.227448,1282.860962 413.189850,1244.707642 
	C573.554993,1244.019043 732.672180,1244.012817 891.904236,1244.876953 
	C892.053345,1248.054321 892.445862,1250.424438 892.054688,1252.657227 
	C890.883362,1259.342407 888.828003,1265.918091 888.178589,1272.639038 
	C887.125732,1283.535156 886.965515,1294.515747 886.342896,1305.455688 
	C883.119995,1362.083984 888.506165,1417.824585 902.955811,1472.724976 
	C921.035767,1541.418579 949.032959,1605.979248 983.471252,1667.901855 
	C989.771179,1679.229614 996.130859,1690.524048 1002.463013,1701.833984 
z"/>
<path fill="#3EC24F" opacity="1.000000" stroke="none" 
	d="
M1437.848022,1778.419556 
	C1438.226685,1773.964600 1440.714478,1771.929199 1445.116577,1772.013184 
	C1447.448242,1772.057617 1449.781616,1772.000977 1452.114258,1772.000977 
	C2031.280273,1772.001465 2610.446289,1772.003052 3190.509277,1772.003906 
	C3190.746582,1788.916016 3190.751221,1805.886841 3189.284424,1822.729370 
	C3186.490723,1854.805176 3182.856689,1886.807861 3178.245605,1919.480225 
	C3172.920898,1920.079834 3168.921875,1920.005005 3164.923096,1920.005005 
	C2640.983154,1919.999756 2117.043213,1920.000000 1593.103271,1920.000244 
	C1590.436890,1920.000244 1587.758301,1919.848511 1585.108032,1920.056274 
	C1582.914429,1920.228271 1580.754395,1920.827393 1578.513428,1921.249756 
	C1578.206055,1924.849609 1577.952271,1927.822754 1577.027100,1930.591431 
	C1574.799438,1929.180786 1573.118652,1928.104126 1571.704590,1926.749146 
	C1534.706177,1891.301147 1498.623657,1854.971924 1466.194214,1815.215942 
	C1456.411377,1803.223022 1447.278564,1790.699829 1437.848022,1778.419556 
z"/>
<path fill="#37BE4A" opacity="1.000000" stroke="none" 
	d="
M366.446533,2050.882080 
	C371.811005,2050.316406 377.133148,2050.020264 382.455261,2050.020020 
	C668.920654,2049.997314 955.386047,2050.012451 1241.851440,2049.916260 
	C1248.089111,2049.914307 1254.326294,2048.665283 1261.956787,2048.168701 
	C1264.235596,2049.553467 1265.121460,2050.767090 1266.000244,2052.801758 
	C1266.627563,2064.429688 1267.911255,2065.662354 1279.204712,2066.056152 
	C1287.818115,2075.015869 1295.854858,2083.673828 1303.929321,2093.043945 
	C1304.094116,2098.710938 1307.216797,2100.125977 1312.115723,2100.466309 
	C1369.420776,2158.610352 1429.348633,2212.829102 1493.586426,2262.216064 
	C1506.484985,2272.132812 1519.444580,2281.970703 1531.484619,2291.892578 
	C1523.350586,2291.293701 1516.107910,2290.082764 1508.865112,2290.080811 
	C1160.338623,2289.988281 811.812134,2290.000244 463.285614,2290.000732 
	C460.953217,2290.000732 458.614960,2290.114014 456.289703,2289.987061 
	C451.733521,2289.737793 448.559052,2291.487061 447.091217,2295.941895 
	C438.508972,2274.993408 429.229187,2254.298340 421.510101,2233.036621 
	C410.310883,2202.188721 399.728363,2171.092529 389.861115,2139.793945 
	C382.994171,2118.012207 377.769409,2095.713135 372.427368,2072.341064 
	C374.563171,2063.518799 374.994904,2056.354004 366.845276,2051.980713 
	C366.845276,2051.980713 366.404236,2051.289795 366.446533,2050.882080 
z"/>
<path fill="#44C554" opacity="1.000000" stroke="none" 
	d="
M3187.649414,1609.151611 
	C2573.418701,1610.007812 1959.327026,1610.000366 1345.235474,1610.072021 
	C1341.007202,1610.072510 1336.778931,1611.162354 1331.382202,1611.367676 
	C1326.178467,1593.301392 1331.701172,1578.103394 1342.800171,1564.615234 
	C1348.077515,1558.202026 1354.154053,1552.453491 1359.712402,1546.263550 
	C1372.370117,1532.167358 1384.931641,1517.984741 1398.334961,1503.951172 
	C1401.704346,1504.525024 1404.285889,1505.436279 1406.834839,1505.352783 
	C1412.435425,1505.168823 1418.019409,1504.060425 1423.610229,1504.059692 
	C1999.327026,1503.995850 2575.043945,1503.991699 3150.760742,1504.083496 
	C3158.995361,1504.084839 3167.230225,1505.340576 3175.464844,1506.010742 
	C3179.572754,1540.104370 3183.680664,1574.197998 3187.649414,1609.151611 
z"/>
<path fill="#3BC04D" opacity="1.000000" stroke="none" 
	d="
M1577.698364,1930.795898 
	C1577.952271,1927.822754 1578.206055,1924.849609 1578.513428,1921.249756 
	C1580.754395,1920.827393 1582.914429,1920.228271 1585.108032,1920.056274 
	C1587.758301,1919.848511 1590.436890,1920.000244 1593.103271,1920.000244 
	C2117.043213,1920.000000 2640.983154,1919.999756 3164.923096,1920.005005 
	C3168.921875,1920.005005 3172.920898,1920.079834 3177.925293,1920.197266 
	C3177.483887,1927.318970 3175.947998,1934.346558 3174.619873,1941.413208 
	C3173.668701,1946.475830 3172.763184,1951.567017 3172.237305,1956.686401 
	C3169.680908,1981.578003 3163.781982,2005.825806 3158.306641,2030.158081 
	C3157.541016,2033.560669 3156.814209,2036.972046 3155.086426,2041.187012 
	C3143.870605,2041.329712 3133.638184,2040.100952 3123.404297,2040.087036 
	C3018.503174,2039.944946 2913.602051,2040.000000 2808.700928,2040.000000 
	C2701.801758,2040.000000 2594.902588,2039.994019 2488.003418,2040.008667 
	C2476.814453,2040.010132 2476.814453,2040.066650 2475.083984,2050.440186 
	C2469.004883,2047.135864 2463.843262,2043.545166 2458.221191,2040.953247 
	C2450.471191,2037.380371 2442.160156,2035.010132 2434.459473,2031.347168 
	C2385.259766,2007.944946 2336.265625,1984.108643 2286.979736,1960.891357 
	C2266.720947,1951.348022 2245.972900,1943.015991 2224.176025,1937.168091 
	C2199.487061,1930.544189 2175.018799,1936.810181 2159.106689,1959.967529 
	C2147.719727,1976.538818 2136.463135,1993.274780 2123.947021,2008.979736 
	C2097.783203,2041.809204 2070.936523,2074.098145 2044.136108,2106.415039 
	C2033.931885,2118.719482 2023.446045,2130.833740 2012.446533,2142.425293 
	C1996.895996,2158.812988 1977.713379,2164.183105 1955.867920,2158.175781 
	C1947.246948,2155.805176 1938.820068,2152.525879 1930.582886,2149.008545 
	C1916.806763,2143.126465 1903.349121,2136.500000 1889.591309,2130.572754 
	C1818.621094,2099.996094 1750.654907,2063.932129 1687.685181,2018.974243 
	C1662.918457,2001.291992 1638.810669,1982.649658 1614.933228,1963.773438 
	C1601.947266,1953.507568 1590.073608,1941.834351 1577.698364,1930.795898 
z"/>
<path fill="#4FCC5D" opacity="1.000000" stroke="none" 
	d="
M591.641479,900.435547 
	C597.191345,900.030701 602.189331,900.001953 607.187256,900.001953 
	C1376.218506,899.999878 2145.249756,900.000061 2914.281006,899.999268 
	C2918.945801,899.999268 2923.610596,899.987732 2929.225098,899.965027 
	C2934.678223,906.065063 2939.485352,911.983276 2943.629395,918.334229 
	C2957.953613,940.287598 2972.046875,962.391785 2985.582520,985.119141 
	C2979.049316,983.557739 2973.224121,981.876160 2966.665771,981.877747 
	C2424.254395,982.010315 1881.843140,982.012451 1339.431885,981.866211 
	C1332.212769,981.864258 1326.438599,982.671387 1323.062378,989.700684 
	C1316.516235,980.177917 1311.042603,970.641418 1304.339844,962.065491 
	C1293.913208,948.724487 1280.603882,938.526306 1263.955078,934.682373 
	C1252.092651,931.943787 1239.689575,930.863403 1227.480713,930.456482 
	C1204.542725,929.691895 1181.566772,930.159302 1158.614136,929.721436 
	C1137.261108,929.314148 1116.531006,932.218750 1096.723755,940.330566 
	C1079.181396,947.515015 1062.564087,956.214172 1049.284790,970.300171 
	C1040.623779,979.487366 1031.539917,988.276062 1022.438782,996.398926 
	C1020.851074,987.215393 1014.611450,987.961731 1008.489441,987.963745 
	C863.705078,988.010376 718.920715,987.966553 574.136414,988.053223 
	C560.056335,988.061646 545.706787,986.008057 532.168457,992.039795 
	C546.293518,969.542847 560.316223,946.980713 574.597656,924.583435 
	C579.776855,916.461121 585.574280,908.733032 591.641479,900.435547 
z"/>
<path fill="#4AC958" opacity="1.000000" stroke="none" 
	d="
M3088.692383,1189.754883 
	C3094.608887,1205.792358 3100.561035,1221.816650 3106.432373,1237.870605 
	C3112.847412,1255.410889 3119.187256,1272.978394 3124.652832,1291.267822 
	C2572.139648,1292.001221 2020.533325,1292.000610 1468.927124,1292.001099 
	C1466.260864,1292.001099 1463.412476,1291.423462 1460.972778,1292.171265 
	C1457.681396,1293.180420 1454.704224,1295.214966 1451.032227,1296.325195 
	C1436.404175,1261.226685 1422.335815,1226.612305 1409.079834,1191.876709 
	C1415.130371,1191.170410 1420.368530,1190.073364 1425.606812,1190.072632 
	C1974.973633,1189.994995 2524.340332,1190.000610 3073.707275,1189.989746 
	C3078.702393,1189.989624 3083.697266,1189.836426 3088.692383,1189.754883 
z"/>
<path fill="#47C756" opacity="1.000000" stroke="none" 
	d="
M3141.479492,1346.009644 
	C3147.637207,1370.580566 3153.815918,1395.146240 3159.929199,1419.728271 
	C3160.801270,1423.234741 3161.357178,1426.819702 3161.057617,1431.184204 
	C2590.127441,1432.002197 2020.199097,1432.004272 1450.343384,1431.326172 
	C1454.886475,1422.213745 1459.201904,1413.694824 1463.859375,1405.367310 
	C1473.968628,1387.291504 1476.587158,1368.169189 1473.193604,1347.870728 
	C1478.237061,1347.161011 1482.476807,1346.072632 1486.716797,1346.072021 
	C2038.304321,1345.999390 2589.891846,1346.006470 3141.479492,1346.009644 
z"/>
<path fill="#4BCA5A" opacity="1.000000" stroke="none" 
	d="
M3088.572510,1189.007568 
	C3083.697266,1189.836426 3078.702393,1189.989624 3073.707275,1189.989746 
	C2524.340332,1190.000610 1974.973633,1189.994995 1425.606812,1190.072632 
	C1420.368530,1190.073364 1415.130371,1191.170410 1408.696045,1191.244263 
	C1401.719971,1176.763550 1395.808350,1162.846924 1390.198853,1148.809448 
	C1385.081177,1136.002441 1380.291138,1123.064575 1376.071289,1109.888916 
	C1381.348267,1104.146118 1387.415283,1103.913452 1393.971558,1103.915283 
	C1741.802124,1104.011230 2089.632568,1104.000000 2437.463135,1104.000000 
	C2635.033691,1104.000000 2832.604004,1104.050293 3030.174316,1103.854004 
	C3040.238770,1103.843994 3047.923340,1105.655273 3051.201904,1116.274902 
	C3052.392578,1120.132568 3055.036377,1122.462036 3059.424316,1122.012573 
	C3069.100342,1144.095093 3078.776611,1166.177734 3088.572510,1189.007568 
z"/>
<path fill="#33BB47" opacity="1.000000" stroke="none" 
	d="
M1982.374146,2504.785645 
	C1980.114014,2509.159180 1976.273926,2508.462402 1972.836670,2507.219727 
	C1963.211182,2503.739502 1953.282959,2503.971680 1943.298950,2503.972412 
	C1489.583374,2504.004150 1035.867920,2504.000000 582.152405,2504.000244 
	C579.154297,2504.000244 576.126465,2504.271240 573.164795,2503.943848 
	C568.359985,2503.412109 565.708557,2505.833984 563.433838,2510.598145 
	C539.836731,2475.150879 517.354980,2438.565674 497.765167,2399.166504 
	C502.665039,2397.222168 507.175812,2396.077148 511.686859,2396.076172 
	C898.638184,2395.993896 1285.589478,2396.005371 1672.540894,2395.965820 
	C1681.870117,2395.964844 1691.112183,2395.918701 1700.148560,2398.909424 
	C1701.811890,2399.460205 1704.116333,2398.073730 1706.845459,2397.688477 
	C1767.735962,2427.928467 1830.669312,2451.348389 1893.830444,2474.165039 
	C1923.199463,2484.774902 1952.850708,2494.603027 1982.374146,2504.785645 
z"/>
<path fill="#45C655" opacity="1.000000" stroke="none" 
	d="
M1450.270752,1432.006470 
	C2020.199097,1432.004272 2590.127441,1432.002197 3160.987305,1432.000977 
	C3165.230225,1448.259033 3168.642334,1464.496582 3171.808838,1480.781982 
	C3173.330566,1488.606567 3174.389160,1496.521118 3175.561035,1505.202881 
	C3167.230225,1505.340576 3158.995361,1504.084839 3150.760742,1504.083496 
	C2575.043945,1503.991699 1999.327026,1503.995850 1423.610229,1504.059692 
	C1418.019409,1504.060425 1412.435425,1505.168823 1406.834839,1505.352783 
	C1404.285889,1505.436279 1401.704346,1504.525024 1398.578369,1503.306030 
	C1402.269653,1497.073486 1406.237305,1491.349121 1410.822998,1486.172485 
	C1425.710205,1469.366699 1439.710938,1451.949097 1450.270752,1432.006470 
z"/>
<path fill="#4DCB5B" opacity="1.000000" stroke="none" 
	d="
M531.639038,992.472229 
	C545.706787,986.008057 560.056335,988.061646 574.136414,988.053223 
	C718.920715,987.966553 863.705078,988.010376 1008.489441,987.963745 
	C1014.611450,987.961731 1020.851074,987.215393 1022.151001,996.956909 
	C1014.779724,1006.552063 1007.475830,1014.732788 1000.201294,1022.939514 
	C955.647400,1073.202271 925.990723,1131.823486 904.427917,1194.846191 
	C899.984863,1207.832153 897.545349,1221.502930 894.171875,1234.855591 
	C893.399780,1237.911499 892.584656,1240.956665 891.789307,1244.006714 
	C732.672180,1244.012817 573.554993,1244.019043 413.546234,1244.034424 
	C423.099182,1217.111694 432.898315,1189.907593 444.120148,1163.303467 
	C468.960907,1104.412476 498.098145,1047.654785 531.639038,992.472229 
z"/>
<path fill="#34BC48" opacity="1.000000" stroke="none" 
	d="
M1706.125000,2397.581299 
	C1704.116333,2398.073730 1701.811890,2399.460205 1700.148560,2398.909424 
	C1691.112183,2395.918701 1681.870117,2395.964844 1672.540894,2395.965820 
	C1285.589478,2396.005371 898.638184,2395.993896 511.686859,2396.076172 
	C507.175812,2396.077148 502.665039,2397.222168 497.472717,2398.543457 
	C479.132233,2365.820068 462.014709,2332.126221 447.354736,2296.531982 
	C448.559052,2291.487061 451.733521,2289.737793 456.289703,2289.987061 
	C458.614960,2290.114014 460.953217,2290.000732 463.285614,2290.000732 
	C811.812134,2290.000244 1160.338623,2289.988281 1508.865112,2290.080811 
	C1516.107910,2290.082764 1523.350586,2291.293701 1532.138306,2292.049316 
	C1582.785889,2327.035400 1633.626709,2359.104004 1686.980103,2387.121826 
	C1693.417358,2390.502441 1699.745972,2394.089844 1706.125000,2397.581299 
z"/>
<path fill="#48C857" opacity="1.000000" stroke="none" 
	d="
M3141.502441,1345.256226 
	C2589.891846,1346.006470 2038.304321,1345.999390 1486.716797,1346.072021 
	C1482.476807,1346.072632 1478.237061,1347.161011 1472.879150,1347.189697 
	C1467.570679,1336.677734 1463.298340,1326.751221 1459.218750,1316.745972 
	C1456.532959,1310.158936 1454.124756,1303.458862 1451.592041,1296.809448 
	C1454.704224,1295.214966 1457.681396,1293.180420 1460.972778,1292.171265 
	C1463.412476,1291.423462 1466.260864,1292.001099 1468.927124,1292.001099 
	C2020.533325,1292.000610 2572.139648,1292.001221 3124.652832,1292.002563 
	C3130.881592,1309.503174 3136.203613,1327.003052 3141.502441,1345.256226 
z"/>
<path fill="#4ECB5C" opacity="1.000000" stroke="none" 
	d="
M1323.583984,990.117432 
	C1326.438599,982.671387 1332.212769,981.864258 1339.431885,981.866211 
	C1881.843140,982.012451 2424.254395,982.010315 2966.665771,981.877747 
	C2973.224121,981.876160 2979.049316,983.557739 2985.756348,985.812195 
	C2996.201172,1002.101990 3005.826172,1018.379456 3014.748779,1035.306396 
	C3008.139648,1035.303955 3002.233154,1034.082031 2996.326660,1034.081055 
	C2451.384277,1033.993896 1906.442139,1033.999878 1361.499878,1034.000610 
	C1358.833496,1034.000610 1356.164429,1034.089722 1353.501465,1033.995972 
	C1349.768677,1033.864624 1347.040283,1035.246582 1345.091919,1038.288574 
	C1337.582397,1021.882080 1330.583252,1005.999756 1323.583984,990.117432 
z"/>
<path fill="#39BF4C" opacity="1.000000" stroke="none" 
	d="
M2475.796143,2050.599121 
	C2476.814453,2040.066650 2476.814453,2040.010132 2488.003418,2040.008667 
	C2594.902588,2039.994019 2701.801758,2040.000000 2808.700928,2040.000000 
	C2913.602051,2040.000000 3018.503174,2039.944946 3123.404297,2040.087036 
	C3133.638184,2040.100952 3143.870605,2041.329712 3154.947754,2041.998779 
	C3151.041504,2065.056641 3145.523193,2087.893311 3138.434814,2110.376953 
	C3131.228516,2133.233398 3124.825928,2156.343018 3118.021973,2179.327148 
	C3117.860107,2179.874023 3117.111084,2180.247070 3115.278564,2181.350586 
	C2954.294434,2182.002197 2794.667725,2182.004639 2634.873535,2181.086426 
	C2634.623535,2176.514648 2634.579102,2172.862061 2634.453125,2169.212158 
	C2633.311279,2136.075439 2628.175293,2127.440674 2598.915771,2111.933594 
	C2583.090820,2103.546875 2566.856934,2095.932129 2550.816162,2087.951904 
	C2525.805420,2075.508789 2500.802490,2063.050781 2475.796143,2050.599121 
z"/>
<path fill="#4DCB5B" opacity="1.000000" stroke="none" 
	d="
M1345.602173,1038.812744 
	C1347.040283,1035.246582 1349.768677,1033.864624 1353.501465,1033.995972 
	C1356.164429,1034.089722 1358.833496,1034.000610 1361.499878,1034.000610 
	C1906.442139,1033.999878 2451.384277,1033.993896 2996.326660,1034.081055 
	C3002.233154,1034.082031 3008.139648,1035.303955 3014.870850,1035.982422 
	C3022.720947,1049.108032 3029.746338,1062.207153 3036.243164,1076.763184 
	C3030.869385,1078.813354 3026.024170,1079.925537 3021.178955,1079.926270 
	C2474.618896,1080.004517 1928.058716,1079.993530 1381.498535,1080.085205 
	C1375.596924,1080.086182 1369.695557,1081.369873 1363.282227,1081.579346 
	C1357.047729,1067.006958 1351.324951,1052.909790 1345.602173,1038.812744 
z"/>
<path fill="#36BD49" opacity="1.000000" stroke="none" 
	d="
M2635.041016,2182.006836 
	C2794.667725,2182.004639 2954.294434,2182.002197 3114.842773,2182.002197 
	C3112.698486,2192.807617 3110.254883,2203.834717 3106.462891,2214.376709 
	C3086.074707,2271.058594 3061.993164,2326.147949 3033.023926,2379.683594 
	C3028.155762,2375.249023 3030.560059,2371.045654 3032.571289,2366.840820 
	C3035.650146,2360.404053 3038.760986,2353.982910 3042.268066,2346.704590 
	C2895.447998,2346.704590 2750.267578,2346.704590 2604.786377,2346.704590 
	C2603.638916,2355.629395 2604.673828,2365.583984 2592.192871,2365.325195 
	C2595.956055,2356.807861 2600.192383,2349.201904 2603.169189,2341.131592 
	C2617.893066,2301.214111 2627.170654,2259.956787 2632.223633,2217.758301 
	C2633.643555,2205.898926 2634.127686,2193.927002 2635.041016,2182.006836 
z"/>
<path fill="#33BB47" opacity="1.000000" stroke="none" 
	d="
M2592.085449,2366.022461 
	C2604.673828,2365.583984 2603.638916,2355.629395 2604.786377,2346.704590 
	C2750.267578,2346.704590 2895.447998,2346.704590 3042.268066,2346.704590 
	C3038.760986,2353.982910 3035.650146,2360.404053 3032.571289,2366.840820 
	C3030.560059,2371.045654 3028.155762,2375.249023 3032.598145,2380.191895 
	C3027.358643,2391.148926 3021.356934,2401.670166 3015.431152,2412.233887 
	C3011.597656,2419.067627 3007.954102,2426.008057 3004.086426,2432.821777 
	C2997.000977,2445.304688 2990.013916,2457.850342 2982.614746,2470.146729 
	C2973.754150,2484.871338 2964.505127,2499.361816 2954.850586,2514.361816 
	C2953.176758,2511.363037 2952.076416,2507.956299 2950.798584,2504.000000 
	C2946.327393,2504.000000 2942.383301,2504.000000 2938.439209,2504.000000 
	C2777.045410,2504.000000 2615.651855,2504.019775 2454.258057,2503.936279 
	C2446.838623,2503.932373 2439.809570,2504.361572 2433.113037,2508.183105 
	C2430.919434,2509.434814 2427.584961,2508.687500 2424.751221,2507.716797 
	C2487.787109,2473.150635 2545.229004,2432.849609 2587.957031,2373.773926 
	C2591.509521,2373.287354 2592.477295,2372.172607 2589.885742,2369.341309 
	C2590.671631,2367.844971 2591.378662,2366.933838 2592.085449,2366.022461 
z"/>
<path fill="#4CCA5B" opacity="1.000000" stroke="none" 
	d="
M1363.794067,1082.054810 
	C1369.695557,1081.369873 1375.596924,1080.086182 1381.498535,1080.085205 
	C1928.058716,1079.993530 2474.618896,1080.004517 3021.178955,1079.926270 
	C3026.024170,1079.925537 3030.869385,1078.813354 3036.303711,1077.453369 
	C3044.336670,1091.343506 3051.780762,1106.000244 3059.324707,1121.334717 
	C3055.036377,1122.462036 3052.392578,1120.132568 3051.201904,1116.274902 
	C3047.923340,1105.655273 3040.238770,1103.843994 3030.174316,1103.854004 
	C2832.604004,1104.050293 2635.033691,1104.000000 2437.463135,1104.000000 
	C2089.632568,1104.000000 1741.802124,1104.011230 1393.971558,1103.915283 
	C1387.415283,1103.913452 1381.348267,1104.146118 1375.595337,1109.395752 
	C1370.867798,1100.150146 1367.330933,1091.102539 1363.794067,1082.054810 
z"/>
<path fill="#4CCA5B" opacity="1.000000" stroke="none" 
	d="
M991.963684,180.357117 
	C1007.502747,172.941132 1023.041748,165.525162 1039.319580,158.154205 
	C1039.435547,159.315765 1039.088745,161.019485 1038.148926,161.461121 
	C1023.310547,168.433548 1008.395996,175.243774 992.740723,181.647888 
	C991.982605,181.204590 991.963684,180.357101 991.963684,180.357117 
z"/>
<path fill="#4CCA5B" opacity="1.000000" stroke="none" 
	d="
M2548.172363,190.391602 
	C2559.371338,195.247849 2570.590332,200.817902 2582.086182,207.025482 
	C2579.868652,207.237335 2577.133789,207.326401 2574.922852,206.293472 
	C2566.971924,202.579163 2559.163330,198.552429 2551.391602,194.471054 
	C2550.093750,193.789505 2549.247070,192.248993 2548.172363,190.391602 
z"/>
<path fill="#4CCA5B" opacity="1.000000" stroke="none" 
	d="
M2496.044434,165.193573 
	C2505.174072,168.547989 2514.429443,172.565964 2524.046875,177.187454 
	C2513.911133,176.380127 2504.612549,172.131195 2496.044434,165.193573 
z"/>
<path fill="#4CCA5B" opacity="1.000000" stroke="none" 
	d="
M942.303345,207.861267 
	C949.809204,203.076538 958.095520,198.395996 967.111206,193.686966 
	C967.452942,194.840195 967.402954,196.719498 966.625488,197.095795 
	C958.846863,200.860687 950.948547,204.378174 942.303345,207.861267 
z"/>
<path fill="#3DC14E" opacity="1.000000" stroke="none" 
	d="
M366.869690,2052.826172 
	C374.994904,2056.354004 374.563171,2063.518799 372.458618,2071.543945 
	C370.213745,2065.924316 368.553925,2059.798096 366.869690,2052.826172 
z"/>
<path fill="#4CCA5B" opacity="1.000000" stroke="none" 
	d="
M920.424744,219.821228 
	C925.237854,216.361725 930.818420,213.036911 937.120789,209.687317 
	C934.850281,217.231201 927.691650,218.060455 920.424744,219.821228 
z"/>
<path fill="#4CCA5B" opacity="1.000000" stroke="none" 
	d="
M2474.111328,154.802185 
	C2479.223145,156.245239 2484.480957,158.376190 2490.095459,161.110962 
	C2484.287842,161.632629 2478.648682,160.184494 2474.111328,154.802185 
z"/>
<path fill="#4CCA5B" opacity="1.000000" stroke="none" 
	d="
M1042.549316,158.051910 
	C1044.920288,156.402054 1048.016846,154.909042 1051.548096,153.767197 
	C1049.080200,155.481812 1046.177734,156.845276 1042.549316,158.051910 
z"/>
<path fill="#4CCA5B" opacity="1.000000" stroke="none" 
	d="
M980.366089,187.932770 
	C982.590942,185.899277 985.571655,183.995453 989.263916,182.026733 
	C989.269714,187.254044 985.044556,187.438690 980.366089,187.932770 
z"/>
<path fill="#30BA45" opacity="1.000000" stroke="none" 
	d="
M2782.701172,2726.033203 
	C2782.450928,2719.090088 2782.801758,2718.701660 2789.014648,2719.559082 
	C2787.505859,2721.810303 2785.399170,2723.799072 2782.701172,2726.033203 
z"/>
<path fill="#DEDEDE" opacity="1.000000" stroke="none" 
	d="
M991.425049,180.250168 
	C991.963684,180.357101 991.982605,181.204590 991.966675,181.630615 
	C991.950806,182.056641 990.957886,182.033081 990.461914,182.005371 
	C990.272705,181.366180 990.579529,180.754700 991.425049,180.250168 
z"/>
<path fill="#FFFFFF" opacity="1.000000" stroke="none" 
	d="
M1363.282227,1081.579346 
	C1367.330933,1091.102539 1370.867798,1100.150146 1374.880615,1109.691162 
	C1380.291138,1123.064575 1385.081177,1136.002441 1390.198853,1148.809448 
	C1395.808350,1162.846924 1401.719971,1176.763550 1407.883667,1191.365479 
	C1422.335815,1226.612305 1436.404175,1261.226685 1451.032227,1296.325195 
	C1454.124756,1303.458862 1456.532959,1310.158936 1459.218750,1316.745972 
	C1463.298340,1326.751221 1467.570679,1336.677734 1472.075439,1347.318848 
	C1476.587158,1368.169189 1473.968628,1387.291504 1463.859375,1405.367310 
	C1459.201904,1413.694824 1454.886475,1422.213745 1450.343384,1431.326172 
	C1439.710938,1451.949097 1425.710205,1469.366699 1410.822998,1486.172485 
	C1406.237305,1491.349121 1402.269653,1497.073486 1397.775635,1503.192139 
	C1384.931641,1517.984741 1372.370117,1532.167358 1359.712402,1546.263550 
	C1354.154053,1552.453491 1348.077515,1558.202026 1342.800171,1564.615234 
	C1331.701172,1578.103394 1326.178467,1593.301392 1330.521484,1611.657349 
	C1333.940796,1619.959839 1336.201538,1628.090698 1340.300415,1635.154907 
	C1369.151489,1684.875854 1401.493042,1732.270020 1437.255371,1778.078491 
	C1447.278564,1790.699829 1456.411377,1803.223022 1466.194214,1815.215942 
	C1498.623657,1854.971924 1534.706177,1891.301147 1571.704590,1926.749146 
	C1573.118652,1928.104126 1574.799438,1929.180786 1577.027100,1930.591431 
	C1590.073608,1941.834351 1601.947266,1953.507568 1614.933228,1963.773438 
	C1638.810669,1982.649658 1662.918457,2001.291992 1687.685181,2018.974243 
	C1750.654907,2063.932129 1818.621094,2099.996094 1889.591309,2130.572754 
	C1903.349121,2136.500000 1916.806763,2143.126465 1930.582886,2149.008545 
	C1938.820068,2152.525879 1947.246948,2155.805176 1955.867920,2158.175781 
	C1977.713379,2164.183105 1996.895996,2158.812988 2012.446533,2142.425293 
	C2023.446045,2130.833740 2033.931885,2118.719482 2044.136108,2106.415039 
	C2070.936523,2074.098145 2097.783203,2041.809204 2123.947021,2008.979736 
	C2136.463135,1993.274780 2147.719727,1976.538818 2159.106689,1959.967529 
	C2175.018799,1936.810181 2199.487061,1930.544189 2224.176025,1937.168091 
	C2245.972900,1943.015991 2266.720947,1951.348022 2286.979736,1960.891357 
	C2336.265625,1984.108643 2385.259766,2007.944946 2434.459473,2031.347168 
	C2442.160156,2035.010132 2450.471191,2037.380371 2458.221191,2040.953247 
	C2463.843262,2043.545166 2469.004883,2047.135864 2475.083984,2050.440186 
	C2500.802490,2063.050781 2525.805420,2075.508789 2550.816162,2087.951904 
	C2566.856934,2095.932129 2583.090820,2103.546875 2598.915771,2111.933594 
	C2628.175293,2127.440674 2633.311279,2136.075439 2634.453125,2169.212158 
	C2634.579102,2172.862061 2634.623535,2176.514648 2634.873535,2181.086426 
	C2634.127686,2193.927002 2633.643555,2205.898926 2632.223633,2217.758301 
	C2627.170654,2259.956787 2617.893066,2301.214111 2603.169189,2341.131592 
	C2600.192383,2349.201904 2595.956055,2356.807861 2592.192871,2365.325195 
	C2591.378662,2366.933838 2590.671631,2367.844971 2589.369385,2369.640137 
	C2588.286621,2371.598877 2587.799072,2372.674072 2587.311768,2373.749023 
	C2545.229004,2432.849609 2487.787109,2473.150635 2424.316406,2507.115234 
	C2416.044922,2511.199707 2408.151855,2514.672607 2400.334961,2518.308838 
	C2365.350830,2534.585205 2328.927979,2545.385498 2290.214111,2547.786133 
	C2269.645752,2549.061523 2249.118896,2551.463623 2228.538330,2551.988770 
	C2182.671387,2553.159424 2137.656738,2545.804443 2093.327881,2534.980225 
	C2056.620850,2526.016846 2020.393188,2515.089844 1983.163574,2504.909180 
	C1952.850708,2494.603027 1923.199463,2484.774902 1893.830444,2474.165039 
	C1830.669312,2451.348389 1767.735962,2427.928467 1706.845459,2397.688477 
	C1699.745972,2394.089844 1693.417358,2390.502441 1686.980103,2387.121826 
	C1633.626709,2359.104004 1582.785889,2327.035400 1533.029785,2292.001465 
	C1519.444580,2281.970703 1506.484985,2272.132812 1493.586426,2262.216064 
	C1429.348633,2212.829102 1369.420776,2158.610352 1311.875244,2099.900879 
	C1308.655884,2096.788086 1306.273682,2094.559814 1303.891602,2092.331787 
	C1295.854858,2083.673828 1287.818115,2075.015869 1278.935059,2065.430664 
	C1274.061646,2060.329346 1270.034546,2056.155029 1266.007324,2051.980957 
	C1265.121460,2050.767090 1264.235596,2049.553467 1262.820435,2048.119629 
	C1249.266846,2032.815552 1236.209717,2017.759888 1223.223877,2002.643066 
	C1168.976074,1939.493408 1118.935059,1873.147095 1072.361084,1804.161011 
	C1049.480591,1770.270020 1026.476562,1736.462524 1002.995728,1702.225586 
	C996.130859,1690.524048 989.771179,1679.229614 983.471252,1667.901855 
	C949.032959,1605.979248 921.035767,1541.418579 902.955811,1472.724976 
	C888.506165,1417.824585 883.119995,1362.083984 886.342896,1305.455688 
	C886.965515,1294.515747 887.125732,1283.535156 888.178589,1272.639038 
	C888.828003,1265.918091 890.883362,1259.342407 892.054688,1252.657227 
	C892.445862,1250.424438 892.053345,1248.054321 891.904236,1244.876953 
	C892.584656,1240.956665 893.399780,1237.911499 894.171875,1234.855591 
	C897.545349,1221.502930 899.984863,1207.832153 904.427917,1194.846191 
	C925.990723,1131.823486 955.647400,1073.202271 1000.201294,1022.939514 
	C1007.475830,1014.732788 1014.779724,1006.552063 1022.357788,997.801270 
	C1031.539917,988.276062 1040.623779,979.487366 1049.284790,970.300171 
	C1062.564087,956.214172 1079.181396,947.515015 1096.723755,940.330566 
	C1116.531006,932.218750 1137.261108,929.314148 1158.614136,929.721436 
	C1181.566772,930.159302 1204.542725,929.691895 1227.480713,930.456482 
	C1239.689575,930.863403 1252.092651,931.943787 1263.955078,934.682373 
	C1280.603882,938.526306 1293.913208,948.724487 1304.339844,962.065491 
	C1311.042603,970.641418 1316.516235,980.177917 1323.062378,989.700684 
	C1330.583252,1005.999756 1337.582397,1021.882080 1345.091919,1038.288574 
	C1351.324951,1052.909790 1357.047729,1067.006958 1363.282227,1081.579346 
z"/>
<path fill="#3DC14E" opacity="1.000000" stroke="none" 
	d="
M1266.000244,2052.801758 
	C1270.034546,2056.155029 1274.061646,2060.329346 1278.358521,2065.128906 
	C1267.911255,2065.662354 1266.627563,2064.429688 1266.000244,2052.801758 
z"/>
<path fill="#3DC14E" opacity="1.000000" stroke="none" 
	d="
M1303.929321,2093.043945 
	C1306.273682,2094.559814 1308.655884,2096.788086 1311.278320,2099.581543 
	C1307.216797,2100.125977 1304.094116,2098.710938 1303.929321,2093.043945 
z"/>
<path fill="#36BD49" opacity="1.000000" stroke="none" 
	d="
M2587.957031,2373.773926 
	C2587.799072,2372.674072 2588.286621,2371.598877 2589.290527,2370.225098 
	C2592.477295,2372.172607 2591.509521,2373.287354 2587.957031,2373.773926 
z"/>
</svg>